# MagicaVoxel @ Ephtracy

# group
g iCorner-8

# material
mtllib iCorner-8.mtl
usemtl palette

# normals
vn -1 0 0
vn 1 0 0
vn 0 0 1
vn 0 0 -1
vn 0 -1 0
vn 0 1 0

# texcoords
vt 0.892578 0.5
vt 0.896484 0.5
vt 0.978516 0.5

# verts
v -16 0 16
v -16 0 -16
v -16 2 16
v -16 2 -16
v -16 3 16
v -16 3 -16
v -13 3 11
v -13 3 10
v -13 4 11
v -13 4 10
v -10 2 2
v -10 2 1
v -10 3 2
v -10 3 1
v -9 2 13
v -9 2 11
v -9 2 1
v -9 2 -0
v -9 2 -9
v -9 2 -11
v -9 3 13
v -9 3 11
v -9 3 1
v -9 3 -0
v -9 3 -9
v -9 3 -11
v -8 3 -11
v -8 3 -12
v -8 4 -11
v -8 4 -12
v -3 2 10
v -3 2 9
v -3 3 10
v -3 3 9
v -1 2 -5
v -1 2 -6
v -1 3 4
v -1 3 3
v -1 3 -5
v -1 3 -6
v -1 4 4
v -1 4 3
v 1 2 16
v 1 2 14
v 1 2 -15
v 1 2 -16
v 1 3 16
v 1 3 14
v 1 3 -15
v 1 3 -16
v 2 2 -14
v 2 2 -15
v 2 3 -14
v 2 3 -15
v 3 3 -9
v 3 3 -10
v 3 4 -9
v 3 4 -10
v 4 2 2
v 4 2 1
v 4 3 13
v 4 3 12
v 4 3 2
v 4 3 1
v 4 4 13
v 4 4 12
v 11 2 12
v 11 2 10
v 11 3 12
v 11 3 10
v 11 3 1
v 11 3 -0
v 11 4 1
v 11 4 -0
v 12 2 13
v 12 2 12
v 12 2 -5
v 12 2 -6
v 12 3 13
v 12 3 12
v 12 3 -5
v 12 3 -6
v -12 2 13
v -12 2 12
v -12 3 13
v -12 3 12
v -12 3 11
v -12 3 10
v -12 4 11
v -12 4 10
v -11 2 2
v -11 2 1
v -11 3 2
v -11 3 1
v -10 2 12
v -10 2 11
v -10 2 1
v -10 2 -0
v -10 2 -9
v -10 2 -11
v -10 3 12
v -10 3 11
v -10 3 1
v -10 3 -0
v -10 3 -9
v -10 3 -11
v -7 3 -11
v -7 3 -12
v -7 4 -11
v -7 4 -12
v -4 2 10
v -4 2 9
v -4 3 10
v -4 3 9
v -2 2 -5
v -2 2 -6
v -2 3 -5
v -2 3 -6
v 0 2 16
v 0 2 14
v 0 2 -15
v 0 2 -16
v 0 3 16
v 0 3 14
v 0 3 4
v 0 3 3
v 0 3 -15
v 0 3 -16
v 0 4 4
v 0 4 3
v 1 2 -14
v 1 2 -15
v 1 3 -14
v 1 3 -15
v 2 2 2
v 2 2 1
v 2 3 2
v 2 3 1
v 4 3 -9
v 4 3 -10
v 4 4 -9
v 4 4 -10
v 5 3 13
v 5 3 12
v 5 4 13
v 5 4 12
v 10 2 12
v 10 2 10
v 10 3 12
v 10 3 10
v 11 2 13
v 11 2 12
v 11 2 -5
v 11 2 -6
v 11 3 13
v 11 3 12
v 11 3 -5
v 11 3 -6
v 12 3 1
v 12 3 -0
v 12 4 1
v 12 4 -0
v 16 0 16
v 16 0 -16
v 16 2 16
v 16 2 -16
v 16 3 16
v 16 3 -16
v -16 0 16
v -16 2 16
v -16 3 16
v 0 1 16
v 0 2 16
v 0 3 16
v 1 1 16
v 1 2 16
v 1 3 16
v 16 0 16
v 16 2 16
v 16 3 16
v 0 2 14
v 0 3 14
v 1 2 14
v 1 3 14
v 4 3 13
v 4 4 13
v 5 3 13
v 5 4 13
v -12 2 12
v -12 3 12
v -10 2 12
v -10 3 12
v 11 2 12
v 11 3 12
v 12 2 12
v 12 3 12
v -13 3 11
v -13 4 11
v -12 3 11
v -12 4 11
v -10 2 11
v -10 3 11
v -9 2 11
v -9 3 11
v 10 2 10
v 10 3 10
v 11 2 10
v 11 3 10
v -4 2 9
v -4 3 9
v -3 2 9
v -3 3 9
v -1 3 4
v -1 4 4
v 0 3 4
v 0 4 4
v -11 2 1
v -11 3 1
v -10 2 1
v -10 3 1
v 2 2 1
v 2 3 1
v 4 2 1
v 4 3 1
v 11 3 1
v 11 4 1
v 12 3 1
v 12 4 1
v -10 2 -0
v -10 3 -0
v -9 2 -0
v -9 3 -0
v -2 2 -6
v -2 3 -6
v -1 2 -6
v -1 3 -6
v 11 2 -6
v 11 3 -6
v 12 2 -6
v 12 3 -6
v 3 3 -9
v 3 4 -9
v 4 3 -9
v 4 4 -9
v -10 2 -11
v -10 3 -11
v -9 2 -11
v -9 3 -11
v -8 3 -11
v -8 4 -11
v -7 3 -11
v -7 4 -11
v 1 2 -15
v 1 3 -15
v 2 2 -15
v 2 3 -15
v -12 2 13
v -12 3 13
v -9 2 13
v -9 3 13
v 11 2 13
v 11 3 13
v 12 2 13
v 12 3 13
v 4 3 12
v 4 4 12
v 5 3 12
v 5 4 12
v 10 2 12
v 10 3 12
v 11 2 12
v 11 3 12
v -13 3 10
v -13 4 10
v -12 3 10
v -12 4 10
v -4 2 10
v -4 3 10
v -3 2 10
v -3 3 10
v -1 3 3
v -1 4 3
v 0 3 3
v 0 4 3
v -11 2 2
v -11 3 2
v -10 2 2
v -10 3 2
v 2 2 2
v 2 3 2
v 4 2 2
v 4 3 2
v -10 2 1
v -10 3 1
v -9 2 1
v -9 3 1
v 11 3 -0
v 11 4 -0
v 12 3 -0
v 12 4 -0
v -2 2 -5
v -2 3 -5
v -1 2 -5
v -1 3 -5
v 11 2 -5
v 11 3 -5
v 12 2 -5
v 12 3 -5
v -10 2 -9
v -10 3 -9
v -9 2 -9
v -9 3 -9
v 3 3 -10
v 3 4 -10
v 4 3 -10
v 4 4 -10
v -8 3 -12
v -8 4 -12
v -7 3 -12
v -7 4 -12
v 1 2 -14
v 1 3 -14
v 2 2 -14
v 2 3 -14
v 0 2 -15
v 0 3 -15
v 1 2 -15
v 1 3 -15
v -16 0 -16
v -16 2 -16
v -16 3 -16
v 0 1 -16
v 0 2 -16
v 0 3 -16
v 1 2 -16
v 1 3 -16
v 2 1 -16
v 2 2 -16
v 16 0 -16
v 16 2 -16
v 16 3 -16
v -16 0 16
v 16 0 16
v -16 0 -16
v 16 0 -16
v 0 2 16
v 1 2 16
v 0 2 14
v 1 2 14
v -12 2 13
v -9 2 13
v 11 2 13
v 12 2 13
v -12 2 12
v -10 2 12
v 10 2 12
v 11 2 12
v 12 2 12
v -10 2 11
v -9 2 11
v -4 2 10
v -3 2 10
v 10 2 10
v 11 2 10
v -4 2 9
v -3 2 9
v -11 2 2
v -10 2 2
v 2 2 2
v 4 2 2
v -11 2 1
v -10 2 1
v -9 2 1
v 2 2 1
v 4 2 1
v -10 2 -0
v -9 2 -0
v -2 2 -5
v -1 2 -5
v 11 2 -5
v 12 2 -5
v -2 2 -6
v -1 2 -6
v 11 2 -6
v 12 2 -6
v -10 2 -9
v -9 2 -9
v -10 2 -11
v -9 2 -11
v 1 2 -14
v 2 2 -14
v 0 2 -15
v 1 2 -15
v 2 2 -15
v 0 2 -16
v 1 2 -16
v -16 3 16
v 0 3 16
v 1 3 16
v 16 3 16
v -6 3 14
v -5 3 14
v 0 3 14
v 1 3 14
v -12 3 13
v -9 3 13
v -6 3 13
v -5 3 13
v 4 3 13
v 5 3 13
v 11 3 13
v 12 3 13
v -12 3 12
v -10 3 12
v 2 3 12
v 4 3 12
v 5 3 12
v 10 3 12
v 11 3 12
v 12 3 12
v -14 3 11
v -13 3 11
v -12 3 11
v -10 3 11
v -9 3 11
v 2 3 11
v 4 3 11
v 13 3 11
v 14 3 11
v -13 3 10
v -12 3 10
v -4 3 10
v -3 3 10
v 10 3 10
v 11 3 10
v 13 3 10
v 14 3 10
v -14 3 9
v -13 3 9
v -4 3 9
v -3 3 9
v -1 3 6
v 0 3 6
v -2 3 5
v -1 3 5
v -2 3 4
v -1 3 4
v 0 3 4
v -1 3 3
v 0 3 3
v -11 3 2
v -10 3 2
v 2 3 2
v 4 3 2
v 9 3 2
v 11 3 2
v -11 3 1
v -10 3 1
v -9 3 1
v -6 3 1
v -5 3 1
v 2 3 1
v 4 3 1
v 9 3 1
v 11 3 1
v 12 3 1
v -10 3 -0
v -9 3 -0
v 11 3 -0
v 12 3 -0
v -6 3 -1
v -5 3 -1
v 5 3 -4
v 6 3 -4
v -2 3 -5
v -1 3 -5
v 5 3 -5
v 6 3 -5
v 11 3 -5
v 12 3 -5
v -13 3 -6
v -12 3 -6
v -2 3 -6
v -1 3 -6
v 11 3 -6
v 12 3 -6
v -13 3 -7
v -12 3 -7
v -11 3 -7
v -12 3 -8
v -11 3 -8
v -10 3 -9
v -9 3 -9
v 3 3 -9
v 4 3 -9
v 1 3 -10
v 3 3 -10
v 4 3 -10
v -10 3 -11
v -9 3 -11
v -8 3 -11
v -7 3 -11
v 1 3 -11
v 3 3 -11
v 10 3 -11
v 11 3 -11
v -8 3 -12
v -7 3 -12
v 10 3 -12
v 11 3 -12
v -8 3 -13
v -7 3 -13
v 1 3 -14
v 2 3 -14
v 0 3 -15
v 1 3 -15
v 2 3 -15
v -16 3 -16
v 0 3 -16
v 1 3 -16
v 16 3 -16
v 4 4 13
v 5 4 13
v 4 4 12
v 5 4 12
v -13 4 11
v -12 4 11
v -13 4 10
v -12 4 10
v -1 4 4
v 0 4 4
v -1 4 3
v 0 4 3
v 11 4 1
v 12 4 1
v 11 4 -0
v 12 4 -0
v 3 4 -9
v 4 4 -9
v 3 4 -10
v 4 4 -10
v -8 4 -11
v -7 4 -11
v -8 4 -12
v -7 4 -12

# faces
f 3/3/1 2/3/1 1/3/1
f 4/3/1 2/3/1 3/3/1
f 5/1/1 4/1/1 3/1/1
f 6/1/1 4/1/1 5/1/1
f 9/2/1 8/2/1 7/2/1
f 10/2/1 8/2/1 9/2/1
f 13/1/1 12/1/1 11/1/1
f 14/1/1 12/1/1 13/1/1
f 21/1/1 16/1/1 15/1/1
f 22/1/1 16/1/1 21/1/1
f 23/1/1 18/1/1 17/1/1
f 24/1/1 18/1/1 23/1/1
f 25/1/1 20/1/1 19/1/1
f 26/1/1 20/1/1 25/1/1
f 29/2/1 28/2/1 27/2/1
f 30/2/1 28/2/1 29/2/1
f 33/1/1 32/1/1 31/1/1
f 34/1/1 32/1/1 33/1/1
f 39/1/1 36/1/1 35/1/1
f 40/1/1 36/1/1 39/1/1
f 41/2/1 38/2/1 37/2/1
f 42/2/1 38/2/1 41/2/1
f 47/1/1 44/1/1 43/1/1
f 48/1/1 44/1/1 47/1/1
f 49/1/1 46/1/1 45/1/1
f 50/1/1 46/1/1 49/1/1
f 53/1/1 52/1/1 51/1/1
f 54/1/1 52/1/1 53/1/1
f 57/2/1 56/2/1 55/2/1
f 58/2/1 56/2/1 57/2/1
f 63/1/1 60/1/1 59/1/1
f 64/1/1 60/1/1 63/1/1
f 65/2/1 62/2/1 61/2/1
f 66/2/1 62/2/1 65/2/1
f 69/1/1 68/1/1 67/1/1
f 70/1/1 68/1/1 69/1/1
f 73/2/1 72/2/1 71/2/1
f 74/2/1 72/2/1 73/2/1
f 79/1/1 76/1/1 75/1/1
f 80/1/1 76/1/1 79/1/1
f 81/1/1 78/1/1 77/1/1
f 82/1/1 78/1/1 81/1/1
f 83/1/2 84/1/2 85/1/2
f 85/1/2 84/1/2 86/1/2
f 87/2/2 88/2/2 89/2/2
f 89/2/2 88/2/2 90/2/2
f 91/1/2 92/1/2 93/1/2
f 93/1/2 92/1/2 94/1/2
f 95/1/2 96/1/2 101/1/2
f 101/1/2 96/1/2 102/1/2
f 97/1/2 98/1/2 103/1/2
f 103/1/2 98/1/2 104/1/2
f 99/1/2 100/1/2 105/1/2
f 105/1/2 100/1/2 106/1/2
f 107/2/2 108/2/2 109/2/2
f 109/2/2 108/2/2 110/2/2
f 111/1/2 112/1/2 113/1/2
f 113/1/2 112/1/2 114/1/2
f 115/1/2 116/1/2 117/1/2
f 117/1/2 116/1/2 118/1/2
f 119/1/2 120/1/2 123/1/2
f 123/1/2 120/1/2 124/1/2
f 121/1/2 122/1/2 127/1/2
f 127/1/2 122/1/2 128/1/2
f 125/2/2 126/2/2 129/2/2
f 129/2/2 126/2/2 130/2/2
f 131/1/2 132/1/2 133/1/2
f 133/1/2 132/1/2 134/1/2
f 135/1/2 136/1/2 137/1/2
f 137/1/2 136/1/2 138/1/2
f 139/2/2 140/2/2 141/2/2
f 141/2/2 140/2/2 142/2/2
f 143/2/2 144/2/2 145/2/2
f 145/2/2 144/2/2 146/2/2
f 147/1/2 148/1/2 149/1/2
f 149/1/2 148/1/2 150/1/2
f 151/1/2 152/1/2 155/1/2
f 155/1/2 152/1/2 156/1/2
f 153/1/2 154/1/2 157/1/2
f 157/1/2 154/1/2 158/1/2
f 159/2/2 160/2/2 161/2/2
f 161/2/2 160/2/2 162/2/2
f 163/3/2 164/3/2 165/3/2
f 165/3/2 164/3/2 166/3/2
f 165/1/2 166/1/2 167/1/2
f 167/1/2 166/1/2 168/1/2
f 172/3/3 170/3/3 169/3/3
f 173/1/3 171/1/3 170/1/3
f 173/3/3 170/3/3 172/3/3
f 174/1/3 171/1/3 173/1/3
f 175/3/3 172/3/3 169/3/3
f 175/2/3 173/2/3 172/2/3
f 176/2/3 173/2/3 175/2/3
f 178/3/3 175/3/3 169/3/3
f 178/3/3 176/3/3 175/3/3
f 179/1/3 177/1/3 176/1/3
f 179/3/3 176/3/3 178/3/3
f 180/1/3 177/1/3 179/1/3
f 183/1/3 182/1/3 181/1/3
f 184/1/3 182/1/3 183/1/3
f 187/2/3 186/2/3 185/2/3
f 188/2/3 186/2/3 187/2/3
f 191/1/3 190/1/3 189/1/3
f 192/1/3 190/1/3 191/1/3
f 195/1/3 194/1/3 193/1/3
f 196/1/3 194/1/3 195/1/3
f 199/2/3 198/2/3 197/2/3
f 200/2/3 198/2/3 199/2/3
f 203/1/3 202/1/3 201/1/3
f 204/1/3 202/1/3 203/1/3
f 207/1/3 206/1/3 205/1/3
f 208/1/3 206/1/3 207/1/3
f 211/1/3 210/1/3 209/1/3
f 212/1/3 210/1/3 211/1/3
f 215/2/3 214/2/3 213/2/3
f 216/2/3 214/2/3 215/2/3
f 219/1/3 218/1/3 217/1/3
f 220/1/3 218/1/3 219/1/3
f 223/1/3 222/1/3 221/1/3
f 224/1/3 222/1/3 223/1/3
f 227/2/3 226/2/3 225/2/3
f 228/2/3 226/2/3 227/2/3
f 231/1/3 230/1/3 229/1/3
f 232/1/3 230/1/3 231/1/3
f 235/1/3 234/1/3 233/1/3
f 236/1/3 234/1/3 235/1/3
f 239/1/3 238/1/3 237/1/3
f 240/1/3 238/1/3 239/1/3
f 243/2/3 242/2/3 241/2/3
f 244/2/3 242/2/3 243/2/3
f 247/1/3 246/1/3 245/1/3
f 248/1/3 246/1/3 247/1/3
f 251/2/3 250/2/3 249/2/3
f 252/2/3 250/2/3 251/2/3
f 255/1/3 254/1/3 253/1/3
f 256/1/3 254/1/3 255/1/3
f 257/1/4 258/1/4 259/1/4
f 259/1/4 258/1/4 260/1/4
f 261/1/4 262/1/4 263/1/4
f 263/1/4 262/1/4 264/1/4
f 265/2/4 266/2/4 267/2/4
f 267/2/4 266/2/4 268/2/4
f 269/1/4 270/1/4 271/1/4
f 271/1/4 270/1/4 272/1/4
f 273/2/4 274/2/4 275/2/4
f 275/2/4 274/2/4 276/2/4
f 277/1/4 278/1/4 279/1/4
f 279/1/4 278/1/4 280/1/4
f 281/2/4 282/2/4 283/2/4
f 283/2/4 282/2/4 284/2/4
f 285/1/4 286/1/4 287/1/4
f 287/1/4 286/1/4 288/1/4
f 289/1/4 290/1/4 291/1/4
f 291/1/4 290/1/4 292/1/4
f 293/1/4 294/1/4 295/1/4
f 295/1/4 294/1/4 296/1/4
f 297/2/4 298/2/4 299/2/4
f 299/2/4 298/2/4 300/2/4
f 301/1/4 302/1/4 303/1/4
f 303/1/4 302/1/4 304/1/4
f 305/1/4 306/1/4 307/1/4
f 307/1/4 306/1/4 308/1/4
f 309/1/4 310/1/4 311/1/4
f 311/1/4 310/1/4 312/1/4
f 313/2/4 314/2/4 315/2/4
f 315/2/4 314/2/4 316/2/4
f 317/2/4 318/2/4 319/2/4
f 319/2/4 318/2/4 320/2/4
f 321/1/4 322/1/4 323/1/4
f 323/1/4 322/1/4 324/1/4
f 325/1/4 326/1/4 327/1/4
f 327/1/4 326/1/4 328/1/4
f 329/3/4 330/3/4 332/3/4
f 330/1/4 331/1/4 333/1/4
f 332/3/4 330/3/4 333/3/4
f 333/1/4 331/1/4 334/1/4
f 332/2/4 333/2/4 335/2/4
f 329/3/4 332/3/4 337/3/4
f 332/2/4 335/2/4 337/2/4
f 335/1/4 336/1/4 338/1/4
f 337/2/4 335/2/4 338/2/4
f 329/3/4 337/3/4 339/3/4
f 337/3/4 338/3/4 339/3/4
f 338/1/4 336/1/4 340/1/4
f 339/3/4 338/3/4 340/3/4
f 340/1/4 336/1/4 341/1/4
f 344/3/5 343/3/5 342/3/5
f 345/3/5 343/3/5 344/3/5
f 346/2/6 347/2/6 348/2/6
f 348/2/6 347/2/6 349/2/6
f 350/2/6 351/2/6 354/2/6
f 354/2/6 351/2/6 355/2/6
f 352/2/6 353/2/6 357/2/6
f 357/2/6 353/2/6 358/2/6
f 355/2/6 351/2/6 359/2/6
f 359/2/6 351/2/6 360/2/6
f 356/2/6 357/2/6 363/2/6
f 363/2/6 357/2/6 364/2/6
f 361/2/6 362/2/6 365/2/6
f 365/2/6 362/2/6 366/2/6
f 367/2/6 368/2/6 371/2/6
f 371/2/6 368/2/6 372/2/6
f 369/2/6 370/2/6 374/2/6
f 374/2/6 370/2/6 375/2/6
f 372/2/6 373/2/6 376/2/6
f 376/2/6 373/2/6 377/2/6
f 378/2/6 379/2/6 382/2/6
f 382/2/6 379/2/6 383/2/6
f 380/2/6 381/2/6 384/2/6
f 384/2/6 381/2/6 385/2/6
f 386/2/6 387/2/6 388/2/6
f 388/2/6 387/2/6 389/2/6
f 390/2/6 391/2/6 393/2/6
f 393/2/6 391/2/6 394/2/6
f 392/2/6 393/2/6 395/2/6
f 395/2/6 393/2/6 396/2/6
f 397/1/6 398/1/6 401/1/6
f 401/1/6 398/1/6 402/1/6
f 402/1/6 398/1/6 403/1/6
f 399/1/6 400/1/6 404/1/6
f 397/1/6 401/1/6 405/1/6
f 405/1/6 401/1/6 406/1/6
f 401/2/6 402/2/6 407/2/6
f 406/1/6 401/1/6 407/1/6
f 402/1/6 403/1/6 408/1/6
f 407/2/6 402/2/6 408/2/6
f 403/1/6 404/1/6 408/1/6
f 404/1/6 400/1/6 409/1/6
f 408/1/6 404/1/6 409/1/6
f 409/1/6 400/1/6 410/1/6
f 410/1/6 400/1/6 411/1/6
f 411/1/6 400/1/6 412/1/6
f 397/1/6 405/1/6 413/1/6
f 406/1/6 407/1/6 415/1/6
f 407/1/6 408/1/6 415/1/6
f 408/1/6 409/1/6 415/1/6
f 415/1/6 409/1/6 416/1/6
f 410/1/6 411/1/6 417/1/6
f 417/1/6 411/1/6 418/1/6
f 418/1/6 411/1/6 419/1/6
f 412/1/6 400/1/6 420/1/6
f 413/1/6 414/1/6 421/1/6
f 397/1/6 413/1/6 421/1/6
f 421/1/6 414/1/6 422/1/6
f 422/1/6 414/1/6 423/1/6
f 423/1/6 414/1/6 424/1/6
f 406/1/6 415/1/6 425/1/6
f 415/2/6 416/2/6 426/2/6
f 425/1/6 415/1/6 426/1/6
f 416/1/6 417/1/6 427/1/6
f 426/2/6 416/2/6 427/2/6
f 417/1/6 418/1/6 427/1/6
f 419/1/6 420/1/6 428/1/6
f 420/1/6 400/1/6 428/1/6
f 428/1/6 400/1/6 429/1/6
f 421/2/6 422/2/6 430/2/6
f 426/1/6 427/1/6 431/1/6
f 424/1/6 425/1/6 431/1/6
f 423/1/6 424/1/6 431/1/6
f 425/1/6 426/1/6 431/1/6
f 431/1/6 427/1/6 432/1/6
f 432/1/6 427/1/6 433/1/6
f 427/1/6 418/1/6 434/1/6
f 433/1/6 427/1/6 434/1/6
f 419/1/6 428/1/6 435/1/6
f 428/2/6 429/2/6 436/2/6
f 435/1/6 428/1/6 436/1/6
f 429/1/6 400/1/6 437/1/6
f 436/2/6 429/2/6 437/2/6
f 421/2/6 430/2/6 438/2/6
f 397/1/6 421/1/6 438/1/6
f 430/1/6 431/1/6 439/1/6
f 438/2/6 430/2/6 439/2/6
f 431/1/6 432/1/6 439/1/6
f 439/1/6 432/1/6 440/1/6
f 436/1/6 437/1/6 441/1/6
f 433/1/6 434/1/6 441/1/6
f 434/1/6 435/1/6 441/1/6
f 435/1/6 436/1/6 441/1/6
f 439/1/6 440/1/6 442/1/6
f 440/1/6 441/1/6 442/1/6
f 441/1/6 437/1/6 442/1/6
f 438/1/6 439/1/6 442/1/6
f 442/1/6 437/1/6 443/1/6
f 438/1/6 442/1/6 444/1/6
f 442/2/6 443/2/6 445/2/6
f 444/1/6 442/1/6 445/1/6
f 438/1/6 444/1/6 446/1/6
f 444/2/6 445/2/6 446/2/6
f 445/2/6 443/2/6 447/2/6
f 446/2/6 445/2/6 447/2/6
f 443/1/6 437/1/6 448/1/6
f 447/2/6 443/2/6 448/2/6
f 446/1/6 447/1/6 449/1/6
f 448/1/6 437/1/6 450/1/6
f 446/1/6 449/1/6 451/1/6
f 449/1/6 450/1/6 451/1/6
f 438/1/6 446/1/6 451/1/6
f 451/1/6 450/1/6 452/1/6
f 450/1/6 437/1/6 453/1/6
f 452/1/6 450/1/6 453/1/6
f 453/1/6 437/1/6 454/1/6
f 454/1/6 437/1/6 455/1/6
f 455/1/6 437/1/6 456/1/6
f 438/1/6 451/1/6 457/1/6
f 452/1/6 453/1/6 458/1/6
f 458/1/6 453/1/6 459/1/6
f 459/1/6 453/1/6 460/1/6
f 460/1/6 453/1/6 461/1/6
f 461/1/6 453/1/6 462/1/6
f 454/1/6 455/1/6 463/1/6
f 455/2/6 456/2/6 464/2/6
f 463/1/6 455/1/6 464/1/6
f 456/1/6 437/1/6 465/1/6
f 464/2/6 456/2/6 465/2/6
f 465/1/6 437/1/6 466/1/6
f 457/1/6 458/1/6 467/1/6
f 459/1/6 460/1/6 468/1/6
f 463/1/6 464/1/6 469/1/6
f 462/1/6 463/1/6 469/1/6
f 461/1/6 462/1/6 469/1/6
f 464/1/6 465/1/6 469/1/6
f 466/1/6 437/1/6 470/1/6
f 467/1/6 468/1/6 471/1/6
f 468/1/6 460/1/6 471/1/6
f 460/2/6 461/2/6 471/2/6
f 469/1/6 470/1/6 472/1/6
f 471/2/6 461/2/6 472/2/6
f 461/1/6 469/1/6 472/1/6
f 471/1/6 472/1/6 473/1/6
f 472/1/6 470/1/6 473/1/6
f 473/1/6 470/1/6 474/1/6
f 471/1/6 473/1/6 475/1/6
f 475/1/6 473/1/6 476/1/6
f 473/2/6 474/2/6 477/2/6
f 476/1/6 473/1/6 477/1/6
f 474/1/6 470/1/6 478/1/6
f 477/2/6 474/2/6 478/2/6
f 478/1/6 470/1/6 479/1/6
f 470/1/6 437/1/6 480/1/6
f 479/1/6 470/1/6 480/1/6
f 467/1/6 471/1/6 481/1/6
f 438/1/6 457/1/6 481/1/6
f 457/1/6 467/1/6 481/1/6
f 471/1/6 475/1/6 481/1/6
f 481/1/6 475/1/6 482/1/6
f 482/1/6 475/1/6 483/1/6
f 478/1/6 479/1/6 484/1/6
f 477/1/6 478/1/6 484/1/6
f 476/1/6 477/1/6 484/1/6
f 484/1/6 479/1/6 485/1/6
f 480/1/6 437/1/6 486/1/6
f 481/2/6 482/2/6 487/2/6
f 438/1/6 481/1/6 487/1/6
f 484/1/6 485/1/6 488/1/6
f 487/2/6 482/2/6 488/2/6
f 482/1/6 483/1/6 488/1/6
f 485/1/6 486/1/6 488/1/6
f 483/1/6 484/1/6 488/1/6
f 488/1/6 486/1/6 489/1/6
f 487/1/6 488/1/6 490/1/6
f 488/2/6 489/2/6 490/2/6
f 489/1/6 486/1/6 491/1/6
f 490/2/6 489/2/6 491/2/6
f 490/1/6 491/1/6 492/1/6
f 491/1/6 486/1/6 492/1/6
f 492/1/6 486/1/6 493/1/6
f 493/1/6 486/1/6 494/1/6
f 494/1/6 486/1/6 495/1/6
f 493/1/6 494/1/6 496/1/6
f 496/1/6 494/1/6 497/1/6
f 495/1/6 486/1/6 498/1/6
f 490/1/6 492/1/6 499/1/6
f 493/1/6 496/1/6 500/1/6
f 500/1/6 496/1/6 501/1/6
f 501/1/6 496/1/6 502/1/6
f 496/2/6 497/2/6 503/2/6
f 502/1/6 496/1/6 503/1/6
f 497/1/6 498/1/6 504/1/6
f 503/2/6 497/2/6 504/2/6
f 498/1/6 486/1/6 505/1/6
f 504/1/6 498/1/6 505/1/6
f 505/1/6 486/1/6 506/1/6
f 499/1/6 500/1/6 507/1/6
f 500/1/6 501/1/6 507/1/6
f 502/1/6 503/1/6 508/1/6
f 503/1/6 504/1/6 508/1/6
f 504/1/6 505/1/6 508/1/6
f 505/2/6 506/2/6 509/2/6
f 508/1/6 505/1/6 509/1/6
f 506/1/6 486/1/6 510/1/6
f 509/2/6 506/2/6 510/2/6
f 499/1/6 507/1/6 511/1/6
f 507/2/6 508/2/6 511/2/6
f 508/1/6 509/1/6 512/1/6
f 511/2/6 508/2/6 512/2/6
f 509/1/6 510/1/6 512/1/6
f 511/1/6 512/1/6 513/1/6
f 512/1/6 510/1/6 513/1/6
f 513/1/6 510/1/6 514/1/6
f 511/1/6 513/1/6 515/1/6
f 515/1/6 513/1/6 516/1/6
f 514/1/6 510/1/6 517/1/6
f 397/1/6 438/1/6 518/1/6
f 438/1/6 487/1/6 518/1/6
f 487/1/6 490/1/6 518/1/6
f 499/1/6 511/1/6 518/1/6
f 511/1/6 515/1/6 518/1/6
f 490/1/6 499/1/6 518/1/6
f 518/1/6 515/1/6 519/1/6
f 516/1/6 517/1/6 520/1/6
f 437/1/6 400/1/6 521/1/6
f 520/1/6 517/1/6 521/1/6
f 517/1/6 510/1/6 521/1/6
f 486/1/6 437/1/6 521/1/6
f 510/1/6 486/1/6 521/1/6
f 522/2/6 523/2/6 524/2/6
f 524/2/6 523/2/6 525/2/6
f 526/2/6 527/2/6 528/2/6
f 528/2/6 527/2/6 529/2/6
f 530/2/6 531/2/6 532/2/6
f 532/2/6 531/2/6 533/2/6
f 534/2/6 535/2/6 536/2/6
f 536/2/6 535/2/6 537/2/6
f 538/2/6 539/2/6 540/2/6
f 540/2/6 539/2/6 541/2/6
f 542/2/6 543/2/6 544/2/6
f 544/2/6 543/2/6 545/2/6
