# MagicaVoxel @ Ephtracy

# group
g iCorner-2

# material
mtllib iCorner-2.mtl
usemtl palette

# normals
vn -1 0 0
vn 1 0 0
vn 0 0 1
vn 0 0 -1
vn 0 -1 0
vn 0 1 0

# texcoords
vt 0.892578 0.5
vt 0.896484 0.5
vt 0.978516 0.5
vt 0.982422 0.5

# verts
v -16 0 16
v -16 0 -16
v -16 2 16
v -16 2 -16
v -16 30 6
v -16 30 -1
v -16 31 16
v -16 31 6
v -16 31 -0
v -16 31 -1
v -16 31 -16
v -16 32 16
v -16 32 6
v -16 32 -0
v -16 32 -16
v -15 31 6
v -15 31 5
v -15 32 6
v -15 32 5
v -14 31 5
v -14 31 3
v -14 31 -0
v -14 31 -1
v -14 32 5
v -14 32 3
v -14 32 -0
v -14 32 -1
v -13 31 3
v -13 31 2
v -13 31 1
v -13 31 -0
v -13 32 3
v -13 32 2
v -13 32 1
v -13 32 -0
v -12 31 2
v -12 31 1
v -12 32 2
v -12 32 1
v -11 31 -9
v -11 31 -10
v -11 32 -9
v -11 32 -10
v -10 31 -10
v -10 31 -11
v -10 32 -10
v -10 32 -11
v -9 31 8
v -9 31 6
v -9 32 8
v -9 32 6
v -8 31 9
v -8 31 8
v -8 32 9
v -8 32 8
v -4 31 -2
v -4 31 -4
v -4 32 -2
v -4 32 -4
v 0 31 -11
v 0 31 -12
v 0 32 -11
v 0 32 -12
v 1 31 12
v 1 31 11
v 1 32 12
v 1 32 11
v 2 31 15
v 2 31 13
v 2 31 -12
v 2 31 -13
v 2 32 15
v 2 32 13
v 2 32 -12
v 2 32 -13
v 3 31 13
v 3 31 12
v 3 32 13
v 3 32 12
v 4 31 16
v 4 31 15
v 4 31 1
v 4 31 -0
v 4 31 -13
v 4 31 -14
v 4 31 -15
v 4 31 -16
v 4 32 16
v 4 32 15
v 4 32 1
v 4 32 -0
v 4 32 -13
v 4 32 -14
v 4 32 -15
v 4 32 -16
v 5 31 4
v 5 31 1
v 5 31 -14
v 5 31 -15
v 5 32 4
v 5 32 1
v 5 32 -14
v 5 32 -15
v 7 31 -4
v 7 31 -6
v 7 32 -4
v 7 32 -6
v 8 31 -6
v 8 31 -8
v 8 32 -6
v 8 32 -8
v 11 31 12
v 11 31 11
v 11 31 -11
v 11 31 -12
v 11 32 12
v 11 32 11
v 11 32 -11
v 11 32 -12
v 13 31 4
v 13 31 3
v 13 32 4
v 13 32 3
v -15 31 -0
v -15 31 -1
v -15 32 -0
v -15 32 -1
v -12 31 -9
v -12 31 -10
v -12 32 -9
v -12 32 -10
v -11 31 -10
v -11 31 -11
v -11 32 -10
v -11 32 -11
v -10 31 9
v -10 31 6
v -10 32 9
v -10 32 6
v -5 31 -2
v -5 31 -4
v -5 32 -2
v -5 32 -4
v -3 31 -11
v -3 31 -12
v -3 32 -11
v -3 32 -12
v -2 31 16
v -2 31 15
v -2 31 -12
v -2 31 -13
v -2 31 -15
v -2 31 -16
v -2 32 16
v -2 32 15
v -2 32 -12
v -2 32 -13
v -2 32 -15
v -2 32 -16
v -1 31 15
v -1 31 13
v -1 31 -13
v -1 31 -15
v -1 32 15
v -1 32 13
v -1 32 -13
v -1 32 -15
v 0 31 13
v 0 31 11
v 0 32 13
v 0 32 11
v 1 31 4
v 1 31 2
v 1 32 4
v 1 32 2
v 3 31 2
v 3 31 -0
v 3 32 2
v 3 32 -0
v 6 31 -4
v 6 31 -8
v 6 32 -4
v 6 32 -8
v 10 31 12
v 10 31 11
v 10 31 -11
v 10 31 -12
v 10 32 12
v 10 32 11
v 10 32 -11
v 10 32 -12
v 11 31 3
v 11 31 2
v 11 32 3
v 11 32 2
v 12 31 4
v 12 31 3
v 12 32 4
v 12 32 3
v 13 31 6
v 13 31 4
v 13 32 6
v 13 32 4
v 14 31 4
v 14 31 3
v 14 31 2
v 14 31 1
v 14 32 4
v 14 32 3
v 14 32 2
v 14 32 1
v 15 31 1
v 15 31 -0
v 15 32 1
v 15 32 -0
v 16 0 16
v 16 0 -16
v 16 2 16
v 16 2 -16
v 16 30 6
v 16 30 -0
v 16 31 16
v 16 31 6
v 16 31 -0
v 16 31 -16
v 16 32 16
v 16 32 6
v 16 32 -0
v 16 32 -16
v -16 0 16
v -16 2 16
v -16 31 16
v -16 32 16
v -2 30 16
v -2 31 16
v -2 32 16
v 4 30 16
v 4 31 16
v 4 32 16
v 16 0 16
v 16 2 16
v 16 31 16
v 16 32 16
v -2 31 15
v -2 32 15
v -1 31 15
v -1 32 15
v 2 31 15
v 2 32 15
v 4 31 15
v 4 32 15
v -1 31 13
v -1 32 13
v 0 31 13
v 0 32 13
v 1 31 12
v 1 32 12
v 3 31 12
v 3 32 12
v 0 31 11
v 0 32 11
v 1 31 11
v 1 32 11
v 10 31 11
v 10 32 11
v 11 31 11
v 11 32 11
v -9 31 8
v -9 32 8
v -8 31 8
v -8 32 8
v -10 31 6
v -10 32 6
v -9 31 6
v -9 32 6
v 13 31 4
v 13 32 4
v 14 31 4
v 14 32 4
v 1 31 2
v 1 32 2
v 3 31 2
v 3 32 2
v 11 31 2
v 11 32 2
v 14 31 2
v 14 32 2
v -13 31 1
v -13 32 1
v -12 31 1
v -12 32 1
v 4 31 1
v 4 32 1
v 5 31 1
v 5 32 1
v 14 31 1
v 14 32 1
v 15 31 1
v 15 32 1
v -16 31 -0
v -16 32 -0
v -15 31 -0
v -15 32 -0
v -14 31 -0
v -14 32 -0
v -13 31 -0
v -13 32 -0
v 3 31 -0
v 3 32 -0
v 4 31 -0
v 4 32 -0
v 15 31 -0
v 15 32 -0
v 16 31 -0
v 16 32 -0
v -15 31 -1
v -15 32 -1
v -14 31 -1
v -14 32 -1
v -5 31 -4
v -5 32 -4
v -4 31 -4
v -4 32 -4
v 6 31 -8
v 6 32 -8
v 8 31 -8
v 8 32 -8
v -12 31 -10
v -12 32 -10
v -11 31 -10
v -11 32 -10
v -11 31 -11
v -11 32 -11
v -10 31 -11
v -10 32 -11
v -3 31 -12
v -3 32 -12
v -2 31 -12
v -2 32 -12
v 10 31 -12
v 10 32 -12
v 11 31 -12
v 11 32 -12
v -2 31 -13
v -2 32 -13
v -1 31 -13
v -1 32 -13
v 4 31 -15
v 4 32 -15
v 5 31 -15
v 5 32 -15
v 2 31 13
v 2 32 13
v 3 31 13
v 3 32 13
v 10 31 12
v 10 32 12
v 11 31 12
v 11 32 12
v -10 31 9
v -10 32 9
v -8 31 9
v -8 32 9
v -16 31 6
v -16 32 6
v -15 31 6
v -15 32 6
v 13 31 6
v 13 32 6
v 16 31 6
v 16 32 6
v -15 31 5
v -15 32 5
v -14 31 5
v -14 32 5
v 1 31 4
v 1 32 4
v 5 31 4
v 5 32 4
v 12 31 4
v 12 32 4
v 13 31 4
v 13 32 4
v -14 31 3
v -14 32 3
v -13 31 3
v -13 32 3
v 11 31 3
v 11 32 3
v 12 31 3
v 12 32 3
v 13 31 3
v 13 32 3
v 14 31 3
v 14 32 3
v -13 31 2
v -13 32 2
v -12 31 2
v -12 32 2
v -5 31 -2
v -5 32 -2
v -4 31 -2
v -4 32 -2
v 6 31 -4
v 6 32 -4
v 7 31 -4
v 7 32 -4
v 7 31 -6
v 7 32 -6
v 8 31 -6
v 8 32 -6
v -12 31 -9
v -12 32 -9
v -11 31 -9
v -11 32 -9
v -11 31 -10
v -11 32 -10
v -10 31 -10
v -10 32 -10
v -3 31 -11
v -3 32 -11
v 0 31 -11
v 0 32 -11
v 10 31 -11
v 10 32 -11
v 11 31 -11
v 11 32 -11
v 0 31 -12
v 0 32 -12
v 2 31 -12
v 2 32 -12
v 2 31 -13
v 2 32 -13
v 4 31 -13
v 4 32 -13
v 4 31 -14
v 4 32 -14
v 5 31 -14
v 5 32 -14
v -2 31 -15
v -2 32 -15
v -1 31 -15
v -1 32 -15
v -16 0 -16
v -16 2 -16
v -16 31 -16
v -16 32 -16
v -3 30 -16
v -3 31 -16
v -2 31 -16
v -2 32 -16
v 4 30 -16
v 4 31 -16
v 4 32 -16
v 16 0 -16
v 16 2 -16
v 16 31 -16
v 16 32 -16
v -16 0 16
v 16 0 16
v -16 0 -16
v 16 0 -16
v -2 31 16
v 4 31 16
v -2 31 15
v -1 31 15
v 2 31 15
v 4 31 15
v -1 31 13
v 0 31 13
v 2 31 13
v 3 31 13
v 1 31 12
v 3 31 12
v 10 31 12
v 11 31 12
v 0 31 11
v 1 31 11
v 10 31 11
v 11 31 11
v -10 31 9
v -8 31 9
v -9 31 8
v -8 31 8
v -16 31 6
v -15 31 6
v -10 31 6
v -9 31 6
v 13 31 6
v 16 31 6
v -15 31 5
v -14 31 5
v 1 31 4
v 5 31 4
v 12 31 4
v 13 31 4
v 14 31 4
v -14 31 3
v -13 31 3
v 11 31 3
v 12 31 3
v 13 31 3
v 14 31 3
v -13 31 2
v -12 31 2
v 1 31 2
v 3 31 2
v 11 31 2
v 14 31 2
v -13 31 1
v -12 31 1
v 4 31 1
v 5 31 1
v 14 31 1
v 15 31 1
v -16 31 -0
v -15 31 -0
v -14 31 -0
v -13 31 -0
v 3 31 -0
v 4 31 -0
v 15 31 -0
v 16 31 -0
v -15 31 -1
v -14 31 -1
v -5 31 -2
v -4 31 -2
v -5 31 -4
v -4 31 -4
v 6 31 -4
v 7 31 -4
v 7 31 -6
v 8 31 -6
v 6 31 -8
v 8 31 -8
v -12 31 -9
v -11 31 -9
v -12 31 -10
v -11 31 -10
v -10 31 -10
v -11 31 -11
v -10 31 -11
v -3 31 -11
v 0 31 -11
v 10 31 -11
v 11 31 -11
v -3 31 -12
v -2 31 -12
v 0 31 -12
v 2 31 -12
v 10 31 -12
v 11 31 -12
v -2 31 -13
v -1 31 -13
v 2 31 -13
v 4 31 -13
v 4 31 -14
v 5 31 -14
v -2 31 -15
v -1 31 -15
v 4 31 -15
v 5 31 -15
v -2 31 -16
v 4 31 -16
v -16 32 16
v -2 32 16
v 4 32 16
v 16 32 16
v -2 32 15
v -1 32 15
v 2 32 15
v 4 32 15
v -1 32 13
v 0 32 13
v 2 32 13
v 3 32 13
v 1 32 12
v 3 32 12
v 10 32 12
v 11 32 12
v 0 32 11
v 1 32 11
v 5 32 11
v 6 32 11
v 10 32 11
v 11 32 11
v 5 32 10
v 6 32 10
v -10 32 9
v -8 32 9
v 7 32 9
v 8 32 9
v -9 32 8
v -8 32 8
v -5 32 8
v -4 32 8
v 7 32 8
v 8 32 8
v -16 32 6
v -15 32 6
v -10 32 6
v -9 32 6
v -5 32 6
v -4 32 6
v 13 32 6
v 16 32 6
v -15 32 5
v -14 32 5
v 1 32 4
v 5 32 4
v 12 32 4
v 13 32 4
v 14 32 4
v -14 32 3
v -13 32 3
v 11 32 3
v 12 32 3
v 13 32 3
v 14 32 3
v -13 32 2
v -12 32 2
v 1 32 2
v 3 32 2
v 11 32 2
v 14 32 2
v -13 32 1
v -12 32 1
v 4 32 1
v 5 32 1
v 14 32 1
v 15 32 1
v -16 32 -0
v -15 32 -0
v -14 32 -0
v -13 32 -0
v 3 32 -0
v 4 32 -0
v 15 32 -0
v 16 32 -0
v -15 32 -1
v -14 32 -1
v -5 32 -2
v -4 32 -2
v 9 32 -2
v 11 32 -2
v 0 32 -3
v 1 32 -3
v 9 32 -3
v 11 32 -3
v -5 32 -4
v -4 32 -4
v 6 32 -4
v 7 32 -4
v -11 32 -5
v -10 32 -5
v 0 32 -5
v 1 32 -5
v -11 32 -6
v -10 32 -6
v 7 32 -6
v 8 32 -6
v 12 32 -6
v 13 32 -6
v 6 32 -8
v 8 32 -8
v -12 32 -9
v -11 32 -9
v -12 32 -10
v -11 32 -10
v -10 32 -10
v 12 32 -10
v 13 32 -10
v -11 32 -11
v -10 32 -11
v -3 32 -11
v 0 32 -11
v 10 32 -11
v 11 32 -11
v -10 32 -12
v -9 32 -12
v -3 32 -12
v -2 32 -12
v 0 32 -12
v 2 32 -12
v 10 32 -12
v 11 32 -12
v -11 32 -13
v -10 32 -13
v -2 32 -13
v -1 32 -13
v 2 32 -13
v 4 32 -13
v -11 32 -14
v -9 32 -14
v 4 32 -14
v 5 32 -14
v -2 32 -15
v -1 32 -15
v 4 32 -15
v 5 32 -15
v -16 32 -16
v -2 32 -16
v 4 32 -16
v 16 32 -16

# faces
f 3/3/1 2/3/1 1/3/1
f 4/3/1 2/3/1 3/3/1
f 5/4/1 4/4/1 3/4/1
f 6/4/1 4/4/1 5/4/1
f 7/4/1 5/4/1 3/4/1
f 8/1/1 6/1/1 5/1/1
f 8/4/1 5/4/1 7/4/1
f 9/1/1 6/1/1 8/1/1
f 10/4/1 4/4/1 6/4/1
f 10/1/1 6/1/1 9/1/1
f 11/4/1 4/4/1 10/4/1
f 12/2/1 8/2/1 7/2/1
f 13/2/1 8/2/1 12/2/1
f 14/2/1 11/2/1 10/2/1
f 14/2/1 10/2/1 9/2/1
f 15/2/1 11/2/1 14/2/1
f 18/2/1 17/2/1 16/2/1
f 19/2/1 17/2/1 18/2/1
f 24/2/1 21/2/1 20/2/1
f 25/2/1 21/2/1 24/2/1
f 26/2/1 23/2/1 22/2/1
f 27/2/1 23/2/1 26/2/1
f 32/2/1 29/2/1 28/2/1
f 33/2/1 29/2/1 32/2/1
f 34/2/1 31/2/1 30/2/1
f 35/2/1 31/2/1 34/2/1
f 38/2/1 37/2/1 36/2/1
f 39/2/1 37/2/1 38/2/1
f 42/2/1 41/2/1 40/2/1
f 43/2/1 41/2/1 42/2/1
f 46/2/1 45/2/1 44/2/1
f 47/2/1 45/2/1 46/2/1
f 50/2/1 49/2/1 48/2/1
f 51/2/1 49/2/1 50/2/1
f 54/2/1 53/2/1 52/2/1
f 55/2/1 53/2/1 54/2/1
f 58/2/1 57/2/1 56/2/1
f 59/2/1 57/2/1 58/2/1
f 62/2/1 61/2/1 60/2/1
f 63/2/1 61/2/1 62/2/1
f 66/2/1 65/2/1 64/2/1
f 67/2/1 65/2/1 66/2/1
f 72/2/1 69/2/1 68/2/1
f 73/2/1 69/2/1 72/2/1
f 74/2/1 71/2/1 70/2/1
f 75/2/1 71/2/1 74/2/1
f 78/2/1 77/2/1 76/2/1
f 79/2/1 77/2/1 78/2/1
f 88/2/1 81/2/1 80/2/1
f 89/2/1 81/2/1 88/2/1
f 90/2/1 83/2/1 82/2/1
f 91/2/1 83/2/1 90/2/1
f 92/2/1 85/2/1 84/2/1
f 93/2/1 85/2/1 92/2/1
f 94/2/1 87/2/1 86/2/1
f 95/2/1 87/2/1 94/2/1
f 100/2/1 97/2/1 96/2/1
f 101/2/1 97/2/1 100/2/1
f 102/2/1 99/2/1 98/2/1
f 103/2/1 99/2/1 102/2/1
f 106/2/1 105/2/1 104/2/1
f 107/2/1 105/2/1 106/2/1
f 110/2/1 109/2/1 108/2/1
f 111/2/1 109/2/1 110/2/1
f 116/2/1 113/2/1 112/2/1
f 117/2/1 113/2/1 116/2/1
f 118/2/1 115/2/1 114/2/1
f 119/2/1 115/2/1 118/2/1
f 122/2/1 121/2/1 120/2/1
f 123/2/1 121/2/1 122/2/1
f 124/2/2 125/2/2 126/2/2
f 126/2/2 125/2/2 127/2/2
f 128/2/2 129/2/2 130/2/2
f 130/2/2 129/2/2 131/2/2
f 132/2/2 133/2/2 134/2/2
f 134/2/2 133/2/2 135/2/2
f 136/2/2 137/2/2 138/2/2
f 138/2/2 137/2/2 139/2/2
f 140/2/2 141/2/2 142/2/2
f 142/2/2 141/2/2 143/2/2
f 144/2/2 145/2/2 146/2/2
f 146/2/2 145/2/2 147/2/2
f 148/2/2 149/2/2 154/2/2
f 154/2/2 149/2/2 155/2/2
f 150/2/2 151/2/2 156/2/2
f 156/2/2 151/2/2 157/2/2
f 152/2/2 153/2/2 158/2/2
f 158/2/2 153/2/2 159/2/2
f 160/2/2 161/2/2 164/2/2
f 164/2/2 161/2/2 165/2/2
f 162/2/2 163/2/2 166/2/2
f 166/2/2 163/2/2 167/2/2
f 168/2/2 169/2/2 170/2/2
f 170/2/2 169/2/2 171/2/2
f 172/2/2 173/2/2 174/2/2
f 174/2/2 173/2/2 175/2/2
f 176/2/2 177/2/2 178/2/2
f 178/2/2 177/2/2 179/2/2
f 180/2/2 181/2/2 182/2/2
f 182/2/2 181/2/2 183/2/2
f 184/2/2 185/2/2 188/2/2
f 188/2/2 185/2/2 189/2/2
f 186/2/2 187/2/2 190/2/2
f 190/2/2 187/2/2 191/2/2
f 192/2/2 193/2/2 194/2/2
f 194/2/2 193/2/2 195/2/2
f 196/2/2 197/2/2 198/2/2
f 198/2/2 197/2/2 199/2/2
f 200/2/2 201/2/2 202/2/2
f 202/2/2 201/2/2 203/2/2
f 204/2/2 205/2/2 208/2/2
f 208/2/2 205/2/2 209/2/2
f 206/2/2 207/2/2 210/2/2
f 210/2/2 207/2/2 211/2/2
f 212/2/2 213/2/2 214/2/2
f 214/2/2 213/2/2 215/2/2
f 216/3/2 217/3/2 218/3/2
f 218/3/2 217/3/2 219/3/2
f 218/4/2 219/4/2 220/4/2
f 220/4/2 219/4/2 221/4/2
f 218/4/2 220/4/2 222/4/2
f 220/1/2 221/1/2 223/1/2
f 222/4/2 220/4/2 223/4/2
f 221/4/2 219/4/2 224/4/2
f 223/1/2 221/1/2 224/1/2
f 224/4/2 219/4/2 225/4/2
f 222/2/2 223/2/2 226/2/2
f 226/2/2 223/2/2 227/2/2
f 224/2/2 225/2/2 228/2/2
f 228/2/2 225/2/2 229/2/2
f 234/4/3 232/4/3 231/4/3
f 235/2/3 233/2/3 232/2/3
f 235/4/3 232/4/3 234/4/3
f 236/2/3 233/2/3 235/2/3
f 237/4/3 234/4/3 231/4/3
f 237/1/3 235/1/3 234/1/3
f 238/1/3 235/1/3 237/1/3
f 240/3/3 231/3/3 230/3/3
f 241/4/3 237/4/3 231/4/3
f 241/3/3 231/3/3 240/3/3
f 241/4/3 238/4/3 237/4/3
f 242/2/3 239/2/3 238/2/3
f 242/4/3 238/4/3 241/4/3
f 243/2/3 239/2/3 242/2/3
f 246/2/3 245/2/3 244/2/3
f 247/2/3 245/2/3 246/2/3
f 250/2/3 249/2/3 248/2/3
f 251/2/3 249/2/3 250/2/3
f 254/2/3 253/2/3 252/2/3
f 255/2/3 253/2/3 254/2/3
f 258/2/3 257/2/3 256/2/3
f 259/2/3 257/2/3 258/2/3
f 262/2/3 261/2/3 260/2/3
f 263/2/3 261/2/3 262/2/3
f 266/2/3 265/2/3 264/2/3
f 267/2/3 265/2/3 266/2/3
f 270/2/3 269/2/3 268/2/3
f 271/2/3 269/2/3 270/2/3
f 274/2/3 273/2/3 272/2/3
f 275/2/3 273/2/3 274/2/3
f 278/2/3 277/2/3 276/2/3
f 279/2/3 277/2/3 278/2/3
f 282/2/3 281/2/3 280/2/3
f 283/2/3 281/2/3 282/2/3
f 286/2/3 285/2/3 284/2/3
f 287/2/3 285/2/3 286/2/3
f 290/2/3 289/2/3 288/2/3
f 291/2/3 289/2/3 290/2/3
f 294/2/3 293/2/3 292/2/3
f 295/2/3 293/2/3 294/2/3
f 298/2/3 297/2/3 296/2/3
f 299/2/3 297/2/3 298/2/3
f 302/2/3 301/2/3 300/2/3
f 303/2/3 301/2/3 302/2/3
f 306/2/3 305/2/3 304/2/3
f 307/2/3 305/2/3 306/2/3
f 310/2/3 309/2/3 308/2/3
f 311/2/3 309/2/3 310/2/3
f 314/2/3 313/2/3 312/2/3
f 315/2/3 313/2/3 314/2/3
f 318/2/3 317/2/3 316/2/3
f 319/2/3 317/2/3 318/2/3
f 322/2/3 321/2/3 320/2/3
f 323/2/3 321/2/3 322/2/3
f 326/2/3 325/2/3 324/2/3
f 327/2/3 325/2/3 326/2/3
f 330/2/3 329/2/3 328/2/3
f 331/2/3 329/2/3 330/2/3
f 334/2/3 333/2/3 332/2/3
f 335/2/3 333/2/3 334/2/3
f 338/2/3 337/2/3 336/2/3
f 339/2/3 337/2/3 338/2/3
f 342/2/3 341/2/3 340/2/3
f 343/2/3 341/2/3 342/2/3
f 346/2/3 345/2/3 344/2/3
f 347/2/3 345/2/3 346/2/3
f 350/2/3 349/2/3 348/2/3
f 351/2/3 349/2/3 350/2/3
f 352/2/4 353/2/4 354/2/4
f 354/2/4 353/2/4 355/2/4
f 356/2/4 357/2/4 358/2/4
f 358/2/4 357/2/4 359/2/4
f 360/2/4 361/2/4 362/2/4
f 362/2/4 361/2/4 363/2/4
f 364/2/4 365/2/4 366/2/4
f 366/2/4 365/2/4 367/2/4
f 368/2/4 369/2/4 370/2/4
f 370/2/4 369/2/4 371/2/4
f 372/2/4 373/2/4 374/2/4
f 374/2/4 373/2/4 375/2/4
f 376/2/4 377/2/4 378/2/4
f 378/2/4 377/2/4 379/2/4
f 380/2/4 381/2/4 382/2/4
f 382/2/4 381/2/4 383/2/4
f 384/2/4 385/2/4 386/2/4
f 386/2/4 385/2/4 387/2/4
f 388/2/4 389/2/4 390/2/4
f 390/2/4 389/2/4 391/2/4
f 392/2/4 393/2/4 394/2/4
f 394/2/4 393/2/4 395/2/4
f 396/2/4 397/2/4 398/2/4
f 398/2/4 397/2/4 399/2/4
f 400/2/4 401/2/4 402/2/4
f 402/2/4 401/2/4 403/2/4
f 404/2/4 405/2/4 406/2/4
f 406/2/4 405/2/4 407/2/4
f 408/2/4 409/2/4 410/2/4
f 410/2/4 409/2/4 411/2/4
f 412/2/4 413/2/4 414/2/4
f 414/2/4 413/2/4 415/2/4
f 416/2/4 417/2/4 418/2/4
f 418/2/4 417/2/4 419/2/4
f 420/2/4 421/2/4 422/2/4
f 422/2/4 421/2/4 423/2/4
f 424/2/4 425/2/4 426/2/4
f 426/2/4 425/2/4 427/2/4
f 428/2/4 429/2/4 430/2/4
f 430/2/4 429/2/4 431/2/4
f 432/2/4 433/2/4 434/2/4
f 434/2/4 433/2/4 435/2/4
f 436/2/4 437/2/4 438/2/4
f 438/2/4 437/2/4 439/2/4
f 440/2/4 441/2/4 442/2/4
f 442/2/4 441/2/4 443/2/4
f 445/4/4 446/4/4 448/4/4
f 446/2/4 447/2/4 449/2/4
f 448/4/4 446/4/4 449/4/4
f 448/1/4 449/1/4 450/1/4
f 449/2/4 447/2/4 450/2/4
f 450/2/4 447/2/4 451/2/4
f 445/4/4 448/4/4 452/4/4
f 448/1/4 450/1/4 452/1/4
f 452/1/4 450/1/4 453/1/4
f 444/3/4 445/3/4 455/3/4
f 445/4/4 452/4/4 456/4/4
f 455/3/4 445/3/4 456/3/4
f 452/4/4 453/4/4 456/4/4
f 453/2/4 454/2/4 457/2/4
f 456/4/4 453/4/4 457/4/4
f 457/2/4 454/2/4 458/2/4
f 461/3/5 460/3/5 459/3/5
f 462/3/5 460/3/5 461/3/5
f 463/1/6 464/1/6 465/1/6
f 465/1/6 464/1/6 466/1/6
f 466/1/6 464/1/6 467/1/6
f 467/1/6 464/1/6 468/1/6
f 466/1/6 467/1/6 469/1/6
f 469/1/6 467/1/6 470/1/6
f 470/1/6 467/1/6 471/1/6
f 471/1/6 472/1/6 473/1/6
f 470/1/6 471/1/6 473/1/6
f 473/1/6 472/1/6 474/1/6
f 470/1/6 473/1/6 477/1/6
f 477/1/6 473/1/6 478/1/6
f 475/1/6 476/1/6 479/1/6
f 479/1/6 476/1/6 480/1/6
f 481/1/6 482/1/6 483/1/6
f 483/1/6 482/1/6 484/1/6
f 481/1/6 483/1/6 487/1/6
f 487/1/6 483/1/6 488/1/6
f 485/1/6 486/1/6 491/1/6
f 489/1/6 490/1/6 496/1/6
f 496/1/6 490/1/6 497/1/6
f 491/1/6 492/1/6 498/1/6
f 495/1/6 496/1/6 501/1/6
f 501/1/6 496/1/6 502/1/6
f 497/1/6 490/1/6 503/1/6
f 498/1/6 499/1/6 504/1/6
f 493/1/6 494/1/6 506/1/6
f 506/1/6 494/1/6 507/1/6
f 501/1/6 502/1/6 508/1/6
f 502/1/6 503/1/6 508/1/6
f 500/1/6 501/1/6 508/1/6
f 503/1/6 490/1/6 509/1/6
f 508/1/6 503/1/6 509/1/6
f 504/1/6 505/1/6 510/1/6
f 498/1/6 504/1/6 510/1/6
f 510/1/6 505/1/6 511/1/6
f 507/1/6 494/1/6 512/1/6
f 512/1/6 494/1/6 513/1/6
f 509/1/6 490/1/6 514/1/6
f 514/1/6 490/1/6 515/1/6
f 485/1/6 491/1/6 516/1/6
f 491/1/6 498/1/6 516/1/6
f 498/1/6 510/1/6 516/1/6
f 516/1/6 510/1/6 517/1/6
f 517/1/6 510/1/6 518/1/6
f 518/1/6 510/1/6 519/1/6
f 507/1/6 512/1/6 520/1/6
f 520/1/6 512/1/6 521/1/6
f 515/1/6 490/1/6 522/1/6
f 522/1/6 490/1/6 523/1/6
f 517/1/6 518/1/6 524/1/6
f 524/1/6 518/1/6 525/1/6
f 526/1/6 527/1/6 528/1/6
f 528/1/6 527/1/6 529/1/6
f 530/1/6 531/1/6 532/1/6
f 530/1/6 532/1/6 534/1/6
f 532/1/6 533/1/6 534/1/6
f 534/1/6 533/1/6 535/1/6
f 536/1/6 537/1/6 538/1/6
f 538/1/6 537/1/6 539/1/6
f 539/1/6 540/1/6 541/1/6
f 541/1/6 540/1/6 542/1/6
f 543/1/6 544/1/6 547/1/6
f 547/1/6 544/1/6 548/1/6
f 548/1/6 544/1/6 549/1/6
f 545/1/6 546/1/6 551/1/6
f 551/1/6 546/1/6 552/1/6
f 549/1/6 550/1/6 553/1/6
f 548/1/6 549/1/6 553/1/6
f 553/1/6 550/1/6 554/1/6
f 554/1/6 550/1/6 555/1/6
f 555/1/6 556/1/6 557/1/6
f 554/1/6 555/1/6 557/1/6
f 554/1/6 557/1/6 560/1/6
f 557/1/6 558/1/6 560/1/6
f 560/1/6 558/1/6 561/1/6
f 561/1/6 558/1/6 562/1/6
f 559/1/6 560/1/6 563/1/6
f 560/1/6 561/1/6 563/1/6
f 563/1/6 561/1/6 564/1/6
f 565/2/6 566/2/6 569/2/6
f 567/2/6 568/2/6 572/2/6
f 569/2/6 570/2/6 573/2/6
f 571/2/6 572/2/6 575/2/6
f 575/2/6 572/2/6 576/2/6
f 576/2/6 572/2/6 578/2/6
f 572/2/6 568/2/6 579/2/6
f 578/2/6 572/2/6 579/2/6
f 579/2/6 568/2/6 580/2/6
f 573/2/6 574/2/6 581/2/6
f 577/2/6 578/2/6 582/2/6
f 578/2/6 579/2/6 582/2/6
f 582/2/6 579/2/6 583/2/6
f 583/2/6 579/2/6 584/2/6
f 584/2/6 579/2/6 585/2/6
f 580/2/6 568/2/6 586/2/6
f 581/2/6 582/2/6 587/2/6
f 582/2/6 583/2/6 587/2/6
f 583/1/6 584/1/6 587/1/6
f 584/2/6 585/2/6 588/2/6
f 587/1/6 584/1/6 588/1/6
f 585/2/6 586/2/6 588/2/6
f 581/2/6 587/2/6 589/2/6
f 565/2/6 569/2/6 589/2/6
f 587/2/6 588/2/6 589/2/6
f 573/2/6 581/2/6 589/2/6
f 569/2/6 573/2/6 589/2/6
f 589/2/6 588/2/6 590/2/6
f 588/2/6 586/2/6 591/2/6
f 590/2/6 588/2/6 591/2/6
f 591/2/6 586/2/6 592/2/6
f 590/2/6 591/2/6 594/2/6
f 594/2/6 591/2/6 595/2/6
f 595/2/6 591/2/6 596/2/6
f 591/1/6 592/1/6 597/1/6
f 596/2/6 591/2/6 597/2/6
f 592/2/6 586/2/6 598/2/6
f 597/1/6 592/1/6 598/1/6
f 565/2/6 589/2/6 599/2/6
f 599/2/6 589/2/6 600/2/6
f 600/2/6 589/2/6 601/2/6
f 593/2/6 594/2/6 602/2/6
f 594/2/6 595/2/6 602/2/6
f 595/1/6 596/1/6 603/1/6
f 602/2/6 595/2/6 603/2/6
f 596/2/6 597/2/6 604/2/6
f 603/1/6 596/1/6 604/1/6
f 597/2/6 598/2/6 604/2/6
f 586/2/6 568/2/6 605/2/6
f 604/2/6 598/2/6 605/2/6
f 598/2/6 586/2/6 605/2/6
f 605/2/6 568/2/6 606/2/6
f 602/2/6 603/2/6 607/2/6
f 603/2/6 604/2/6 607/2/6
f 604/2/6 605/2/6 607/2/6
f 601/2/6 602/2/6 607/2/6
f 600/2/6 601/2/6 607/2/6
f 607/2/6 605/2/6 608/2/6
f 608/2/6 605/2/6 609/2/6
f 609/2/6 605/2/6 610/2/6
f 610/2/6 605/2/6 611/2/6
f 611/2/6 605/2/6 612/2/6
f 608/2/6 609/2/6 614/2/6
f 614/2/6 609/2/6 615/2/6
f 610/2/6 611/2/6 616/2/6
f 616/2/6 611/2/6 617/2/6
f 612/2/6 613/2/6 618/2/6
f 618/2/6 613/2/6 619/2/6
f 615/2/6 609/2/6 620/2/6
f 620/2/6 609/2/6 621/2/6
f 621/2/6 609/2/6 622/2/6
f 610/2/6 616/2/6 624/2/6
f 622/2/6 623/2/6 627/2/6
f 621/2/6 622/2/6 627/2/6
f 610/2/6 624/2/6 629/2/6
f 624/2/6 625/2/6 629/2/6
f 629/2/6 625/2/6 630/2/6
f 626/2/6 627/2/6 635/2/6
f 627/2/6 623/2/6 636/2/6
f 635/2/6 627/2/6 636/2/6
f 629/2/6 630/2/6 637/2/6
f 628/2/6 629/2/6 637/2/6
f 630/2/6 631/2/6 637/2/6
f 637/2/6 631/2/6 638/2/6
f 632/2/6 633/2/6 640/2/6
f 635/2/6 636/2/6 641/2/6
f 638/2/6 639/2/6 641/2/6
f 637/2/6 638/2/6 641/2/6
f 636/2/6 637/2/6 641/2/6
f 634/2/6 635/2/6 641/2/6
f 641/2/6 639/2/6 642/2/6
f 640/2/6 641/2/6 642/2/6
f 642/2/6 639/2/6 643/2/6
f 643/2/6 639/2/6 644/2/6
f 644/2/6 639/2/6 645/2/6
f 643/2/6 644/2/6 646/2/6
f 646/2/6 644/2/6 647/2/6
f 644/1/6 645/1/6 648/1/6
f 647/2/6 644/2/6 648/2/6
f 645/2/6 639/2/6 649/2/6
f 648/1/6 645/1/6 649/1/6
f 640/2/6 642/2/6 650/2/6
f 643/2/6 646/2/6 651/2/6
f 647/2/6 648/2/6 652/2/6
f 648/2/6 649/2/6 652/2/6
f 652/2/6 649/2/6 653/2/6
f 650/2/6 651/2/6 654/2/6
f 640/2/6 650/2/6 654/2/6
f 654/2/6 651/2/6 655/2/6
f 646/1/6 647/1/6 656/1/6
f 655/2/6 651/2/6 656/2/6
f 651/2/6 646/2/6 656/2/6
f 647/2/6 652/2/6 657/2/6
f 656/1/6 647/1/6 657/1/6
f 654/1/6 655/1/6 658/1/6
f 640/2/6 654/2/6 658/2/6
f 655/2/6 656/2/6 659/2/6
f 658/1/6 655/1/6 659/1/6
f 656/2/6 657/2/6 659/2/6
f 653/2/6 649/2/6 660/2/6
f 660/2/6 649/2/6 661/2/6
f 649/2/6 639/2/6 662/2/6
f 661/2/6 649/2/6 662/2/6
f 662/2/6 639/2/6 663/2/6
f 659/2/6 657/2/6 664/2/6
f 657/2/6 652/2/6 664/2/6
f 658/2/6 659/2/6 664/2/6
f 661/2/6 662/2/6 665/2/6
f 658/2/6 664/2/6 666/2/6
f 664/2/6 665/2/6 666/2/6
f 640/2/6 658/2/6 666/2/6
f 666/2/6 665/2/6 667/2/6
f 640/2/6 666/2/6 668/2/6
f 667/2/6 665/2/6 669/2/6
f 669/2/6 665/2/6 670/2/6
f 662/1/6 663/1/6 671/1/6
f 670/2/6 665/2/6 671/2/6
f 665/2/6 662/2/6 671/2/6
f 663/2/6 639/2/6 672/2/6
f 671/1/6 663/1/6 672/1/6
f 668/2/6 669/2/6 673/2/6
f 670/2/6 671/2/6 674/2/6
f 671/2/6 672/2/6 674/2/6
f 674/2/6 672/2/6 675/2/6
f 675/2/6 672/2/6 676/2/6
f 676/2/6 672/2/6 677/2/6
f 677/2/6 672/2/6 678/2/6
f 673/2/6 674/2/6 679/2/6
f 674/2/6 675/2/6 679/2/6
f 679/2/6 675/2/6 680/2/6
f 680/2/6 675/2/6 681/2/6
f 676/2/6 677/2/6 683/2/6
f 683/2/6 677/2/6 684/2/6
f 684/2/6 677/2/6 685/2/6
f 678/2/6 672/2/6 686/2/6
f 668/2/6 673/2/6 687/2/6
f 673/2/6 679/2/6 687/2/6
f 679/1/6 680/1/6 688/1/6
f 687/2/6 679/2/6 688/2/6
f 681/2/6 682/2/6 689/2/6
f 680/2/6 681/2/6 689/2/6
f 685/2/6 686/2/6 691/2/6
f 684/2/6 685/2/6 691/2/6
f 691/2/6 686/2/6 692/2/6
f 668/2/6 687/2/6 693/2/6
f 687/1/6 688/1/6 693/1/6
f 689/2/6 690/2/6 694/2/6
f 693/1/6 688/1/6 694/1/6
f 680/2/6 689/2/6 694/2/6
f 688/1/6 680/1/6 694/1/6
f 692/2/6 686/2/6 695/2/6
f 695/2/6 686/2/6 696/2/6
f 694/2/6 690/2/6 697/2/6
f 693/2/6 694/2/6 697/2/6
f 697/2/6 690/2/6 698/2/6
f 696/2/6 686/2/6 700/2/6
f 632/2/6 640/2/6 701/2/6
f 668/2/6 693/2/6 701/2/6
f 640/2/6 668/2/6 701/2/6
f 693/2/6 697/2/6 701/2/6
f 701/2/6 697/2/6 702/2/6
f 699/2/6 700/2/6 703/2/6
f 700/2/6 686/2/6 704/2/6
f 703/2/6 700/2/6 704/2/6
f 672/2/6 639/2/6 704/2/6
f 686/2/6 672/2/6 704/2/6
